<?xml version="1.0" standalone="no"?>
<!DOCTYPE svg PUBLIC "-//W3C//DTD SVG 20010904//EN"
 "http://www.w3.org/TR/2001/REC-SVG-20010904/DTD/svg10.dtd">
<svg version="1.0" xmlns="http://www.w3.org/2000/svg"
 width="260.000000pt" height="260.000000pt" viewBox="0 0 260.000000 260.000000"
 preserveAspectRatio="xMidYMid meet">
<metadata>
Created by potrace 1.14, written by Peter Selinger 2001-2017
</metadata>
<g transform="translate(0.000000,260.000000) scale(0.100000,-0.100000)"
fill="#000000" stroke="none">
<path d="M657 2552 c-2 -4 -14 -36 -25 -72 -61 -186 -77 -402 -43 -565 31
-150 109 -300 212 -409 68 -72 197 -174 241 -191 12 -5 15 13 16 102 1 59 8
134 15 165 l14 58 -59 117 c-32 65 -65 143 -72 173 -14 55 -12 78 4 50 19 -35
163 -220 170 -220 4 0 11 7 14 17 15 37 103 160 159 220 l59 63 -40 53 c-83
108 -166 185 -282 261 -119 79 -373 197 -383 178z"/>
<path d="M1825 2170 c-441 -191 -677 -469 -702 -824 -5 -72 9 -215 23 -237 15
-26 141 82 258 221 71 82 215 273 235 308 18 31 20 7 5 -51 -32 -123 -129
-298 -268 -485 -81 -108 -169 -193 -266 -257 -79 -51 -124 -97 -144 -147 -25
-58 -20 -58 38 -2 64 62 130 97 307 164 232 88 410 201 515 328 67 82 146 232
176 338 30 104 32 333 4 464 -20 94 -54 211 -64 222 -4 3 -56 -15 -117 -42z"/>
<path d="M49 1287 c-69 -46 -60 -151 16 -183 19 -7 43 -14 53 -14 16 0 21 -12
32 -77 25 -157 85 -311 175 -449 59 -92 177 -220 259 -283 63 -49 214 -141
231 -141 9 0 10 14 3 58 -33 197 42 459 175 611 105 120 120 193 64 314 -33
73 -76 118 -146 155 l-59 32 -384 0 c-384 0 -385 0 -419 -23z"/>
<path d="M1959 1262 c-48 -87 -151 -213 -226 -277 -91 -77 -185 -127 -368
-195 -260 -96 -376 -176 -433 -297 -23 -51 -27 -72 -30 -178 -2 -76 2 -138 10
-170 l13 -50 85 -24 c76 -22 106 -24 285 -25 190 -1 205 0 300 27 359 100 641
348 782 687 33 78 66 201 78 283 5 38 10 47 26 47 38 0 88 28 103 59 20 38 20
64 1 101 -29 57 -48 60 -337 60 l-263 0 -26 -48z"/>
</g>
</svg>
